<svg xmlns="http://www.w3.org/2000/svg" width="176" height="176" viewBox="0 0 176 176"><path d="M88,174a86,86,0,1,1,86-86,86.1,86.1,0,0,1-86,86" fill="#ffd500"/><path d="M88,4A84,84,0,1,1,4,88,84.095,84.095,0,0,1,88,4m0-4a88,88,0,1,0,88,88A88,88,0,0,0,88,0" fill="#19213c"/><path d="M122.1,71.269h-1.521a24.289,24.289,0,0,1-1.626,2.675,190.019,190.019,0,0,1,35.142,3.2l-3.409,3.3a169.26,169.26,0,0,0-31.471-2.727H116.75a32.933,32.933,0,0,1-2.2,2.884h5.77a170.844,170.844,0,0,1,28.114,2.308l-3.462,3.3a165.528,165.528,0,0,0-24.39-1.836,86.35,86.35,0,0,0-9.022.315l-2.937,3.146c3.881-.367,8.13-.576,13.218-.576A143.3,143.3,0,0,1,142.4,88.681l-3.41,3.3a130.353,130.353,0,0,0-15.525-.944,60.276,60.276,0,0,0-33.412,9.177,59.43,59.43,0,0,0,41.961,17.412h1.941l-5.507,5.244A183.172,183.172,0,0,1,61.309,94.817,218.406,218.406,0,0,0,19.767,71.059V67.126l10.491,4.4,3.514-2.779L67.446,84.17l-2.2,1.783-17.257-7.5-1.731,1.311,8.97,4.982A38.439,38.439,0,0,0,73.9,90.883c11.644,0,22.135-8.286,28.848-22.813a136.2,136.2,0,0,1,16.47-.629,219.236,219.236,0,0,1,41.017,4.038l-3.567,3.461A205.922,205.922,0,0,0,122.1,71.479" fill="#19213c"/><path d="M88,4A84,84,0,1,1,4,88,84.095,84.095,0,0,1,88,4m0-4a88,88,0,1,0,88,88A88,88,0,0,0,88,0" fill="#19213c"/></svg>