<svg xmlns="http://www.w3.org/2000/svg" width="37" height="37" viewBox="0 0 37 37"><g transform="translate(-4831 -3155)"><circle cx="18.5" cy="18.5" r="18.5" transform="translate(4831 3155)" fill="#fff"/><g transform="translate(4830.583 3154.58)"><path d="M13.27,21.35a19.09,19.09,0,0,0,1.14-7c-.07-.57-.14-1.58-.33-2.57A14.8,14.8,0,0,0,9.37,3.21,18.83,18.83,0,0,0,3.22,29.12c.1.17.21.33.32.5a20.52,20.52,0,0,0,4.22-1.84,12.62,12.62,0,0,0,5.51-6.43Z" fill="#e51b29"/><path d="M18.928.42a18.25,18.25,0,0,0-8.06,1.852,32.829,32.829,0,0,1,7.165,3.455,16.584,16.584,0,0,1,5.045,4.8A8.14,8.14,0,0,1,22.5,20.685l-.935,1.066h.468l5.3-.358c2.378-.169,4.747-.349,7.115-.5a1.27,1.27,0,0,1,.438.189c-.109.11-.189.3-.328.339-.607.2-1.234.358-1.861.548L25.108,24.16,13.067,27.616,5.146,29.876l-.876.259A18.457,18.457,0,0,0,37.417,18.922h0A18.476,18.476,0,0,0,18.928.42Z" transform="translate(0)" fill="#e51b29"/></g></g></svg>