<svg id="Layer_1" data-name="Layer 1" xmlns="http://www.w3.org/2000/svg" viewBox="0 0 2500 2500"><defs><style>.cls-1{fill:#004193;}.cls-2{fill:#ec6c00;}</style></defs><path class="cls-1" d="M563.58,212.41c-7.5-1.88-15,0-22.5,3.76a789.38,789.38,0,0,0-67.52,50.75c-11.25,9.4-15,24.43-7.5,35.71L678,671.05l11.25,15h0l-15-11.28L304.77,462.41c-11.25-7.52-28.13-3.76-37.51,7.51l-50.64,67.67c-3.75,7.52-5.62,15-3.75,22.56A34.48,34.48,0,0,0,226,579L854.28,941.73a35.28,35.28,0,0,0,15,3.76c7.5,0,15-3.76,20.63-9.4a508.33,508.33,0,0,1,45-45.11c9.37-9.4,13.13-24.44,5.62-35.72L582.34,225.56c-3.75-7.51-11.25-11.27-18.76-13.15"/><path class="cls-1" d="M1576.34,1695.49c-429.48,32-1024,125.94-1449.74,103.38,45,92.11,101.28,176.69,166.92,255.64,37.51,43.23,76.89,84.59,120,124.06C646.11,2385.34,944.3,2500,1253.76,2500c311.33,0,609.52-112.78,838.33-317.67,95.65-84.59,172.54-174.81,232.56-274.44,41.26-67.66,75-139.09,103.15-216.16-183.8-35.71-497-22.56-851.46,3.76"/><path class="cls-1" d="M563.58,212.41c-7.5-1.88-15,0-22.5,3.76a789.38,789.38,0,0,0-67.52,50.75c-11.25,9.4-15,24.43-7.5,35.71L678,671.05l11.25,15h0l-15-11.28L304.77,462.41c-11.25-7.52-28.13-3.76-35.63,7.51L218.5,537.59c-3.75,5.64-5.63,15-3.75,22.56A34.43,34.43,0,0,0,227.88,579L856.16,941.73a35.27,35.27,0,0,0,15,3.76c7.5,0,15-3.76,20.63-9.4a511,511,0,0,1,45-45.11c9.38-9.4,13.13-24.44,5.63-35.72L582.34,225.56a34.41,34.41,0,0,0-18.76-13.15"/><path class="cls-1" d="M2289,560.15c1.87-7.52,0-15-3.75-22.56a797.06,797.06,0,0,0-50.64-67.67,29.26,29.26,0,0,0-35.64-7.51L1829.53,676.69l-15,11.28h0l11.26-15L2037.7,304.51c7.51-11.28,3.75-28.19-7.5-35.71l-67.52-50.75c-5.62-3.76-15-5.64-22.5-3.76a34.43,34.43,0,0,0-18.76,13.15l-363.84,629.7a35.57,35.57,0,0,0-3.75,15c0,7.52,3.75,15,9.38,20.68,16.88,13.16,31.88,30.07,45,45.11,9.38,9.4,24.38,13.16,35.63,5.64l628.29-362.78c11.25-5.64,15-13.16,16.88-20.68"/><path class="cls-1" d="M1807,133.46c-1.87-7.52-7.5-13.16-15-16.92-24.38-11.28-50.64-22.56-76.9-33.83-13.13-5.64-28.13,0-35.63,11.28L1467.56,462.41l-7.5,16.91h0l1.87-18.79V37.59A28.44,28.44,0,0,0,1437.55,9.4C1409.42,5.64,1381.29,1.88,1355,0c-7.5,0-15,1.88-20.63,7.52S1325,20.68,1325,28.2V755.64c0,5.64,1.88,9.4,3.76,15,3.75,7.52,11.25,11.28,18.75,13.15a379,379,0,0,1,61.89,16.92c13.13,3.76,26.26-1.88,33.76-13.16L1807,157.89c0-7.51,1.88-16.91,0-24.43"/><path class="cls-1" d="M2495.32,1171.05c5.62-5.64,7.5-13.16,7.5-22.55-1.88-28.2-5.63-56.4-9.38-82.71a28.42,28.42,0,0,0-28.13-24.44H2039.58l-18.76,1.88h0l16.88-7.52,369.47-212.4c13.13-7.52,16.88-22.56,13.13-35.72-9.38-26.31-22.51-52.63-33.76-77.06-3.75-7.52-9.38-13.16-16.88-15s-15-1.88-22.5,1.88l-628.29,362.78c-3.75,1.88-7.5,5.64-11.25,9.4-3.75,7.52-5.63,15-1.87,22.56a381,381,0,0,1,16.87,62c1.88,13.15,15,22.55,28.14,22.55h725.8c5.63,3.76,13.13,0,18.76-5.64"/><path class="cls-1" d="M137.85,695.49c-7.5,1.88-13.13,7.52-16.88,15-11.25,24.43-22.5,50.75-33.75,77.06-5.63,13.16,0,28.2,13.12,35.72l367.6,212.4,16.88,7.52h0l-18.76-1.88H40.33c-15,0-26.26,9.4-28.13,24.44-3.75,28.19-7.51,56.39-9.38,82.71,0,7.51,1.87,15,7.5,20.67s13.13,9.4,20.63,9.4H756.76c5.62,0,9.38-1.88,15-3.76,7.5-3.76,11.25-11.28,13.13-18.8a381.61,381.61,0,0,1,16.88-62c3.75-13.15,0-26.31-13.13-33.83L160.36,697.37c-7.5-3.76-15-3.76-22.51-1.88"/><path class="cls-1" d="M1175,7.52C1169.36,1.88,1161.86,0,1152.48,0c-28.13,1.88-56.26,5.64-82.52,9.4-15,1.88-24.38,13.16-24.38,28.19v426.7l1.88,18.79h0L1040,466.17,828,97.74c-7.51-11.27-22.51-16.91-35.64-11.27C766.14,95.86,739.88,109,715.5,120.3c-7.5,3.76-13.13,9.4-15,16.92s-1.87,15,1.88,22.55l363.84,629.7q2.82,5.64,11.25,11.28c7.5,3.76,15,5.64,24.38,1.88a379,379,0,0,1,61.89-16.92c13.13-1.88,22.51-15,22.51-28.19V30.08c-3.75-11.28-5.63-18.8-11.25-22.56"/><path class="cls-2" d="M2424.05,1338.35c-262.57,0-463.24,63.91-984.62,174.81-737.06,156-1260.32,28.19-1380.35,11.28-18.75-1.88-30,7.51-24.38,26.31,13.13,60.15,58.14,188,90,246.24,427.6,22.56,1020.25-71.43,1449.73-103.38,354.47-26.32,667.67-39.47,851.47-1.88a1341.76,1341.76,0,0,0,65.64-268.8c11.25-54.51,5.62-84.58-67.52-84.58"/><path class="cls-2" d="M27.2,1426.69c24.38,9.4,365.72,125.94,894.6,133.46,150,1.88,341.33-20.68,455.74-45.11-60,9.4-187.55,28.19-345.09,28.19C728.63,1541.35,265.39,1436.09,46,1336.47c-9.38-3.76-18.76-1.88-28.14,3.76-7.5,5.63-13.13,15-11.25,26.31,1.88,13.16,1.88,28.2,3.75,41.36,1.88,7.51,3.75,13.15,16.88,18.79"/></svg>