<svg xmlns="http://www.w3.org/2000/svg" width="24.219" height="24.219" viewBox="0 0 24.219 24.219"><path d="M9.059,2.25h10.6c2.238,0,3.361,0,4.332.494a4.508,4.508,0,0,1,1.983,1.983c.494.97.494,2.094.494,4.331v10.6c0,2.238,0,3.361-.494,4.332a4.508,4.508,0,0,1-1.983,1.983c-.97.494-2.094.494-4.331.494H9.059c-2.238,0-3.361,0-4.332-.494a4.508,4.508,0,0,1-1.983-1.982c-.494-.971-.494-2.094-.494-4.332V9.059c0-2.238,0-3.361.494-4.332A4.508,4.508,0,0,1,4.727,2.744C5.7,2.25,6.821,2.25,9.059,2.25Zm10.6,22.719c2,0,3,0,3.651-.331a3.017,3.017,0,0,0,1.327-1.327c.331-.65.331-1.653.331-3.651V9.059c0-2,0-3-.331-3.65a3.017,3.017,0,0,0-1.327-1.327c-.65-.331-1.653-.331-3.651-.331H9.059c-2,0-3,0-3.651.331A3.018,3.018,0,0,0,4.081,5.408c-.331.65-.331,1.652-.331,3.651v10.6c0,2,0,3,.331,3.651a3.017,3.017,0,0,0,1.327,1.327c.65.331,1.652.331,3.651.331Z" transform="translate(-2.25 -2.25)" fill="#1f2126"/></svg>