<svg xmlns="http://www.w3.org/2000/svg" width="24.219" height="24.219" viewBox="0 0 24.219 24.219">
  <path id="columns" d="M10.573,3V25.719M18.146,3V25.719M9.059,3h10.6c2.121,0,3.181,0,3.991.413a3.786,3.786,0,0,1,1.655,1.655c.413.81.413,1.87.413,3.991v10.6c0,2.121,0,3.181-.413,3.991a3.786,3.786,0,0,1-1.655,1.655c-.81.413-1.87.413-3.991.413H9.059c-2.121,0-3.181,0-3.991-.413a3.786,3.786,0,0,1-1.655-1.655C3,22.842,3,21.782,3,19.661V9.059c0-2.121,0-3.181.413-3.991A3.787,3.787,0,0,1,5.068,3.413C5.877,3,6.938,3,9.059,3Z" transform="translate(-2.25 -2.25)" fill="none" stroke="#1f2126" stroke-linecap="round" stroke-linejoin="round" stroke-width="1.5"/>
</svg>
