<svg xmlns="http://www.w3.org/2000/svg" width="20.607" height="25.384" viewBox="0 0 20.607 25.384"><path d="M9.732,1.25h6.21a.75.75,0,0,1,.53.22l7.165,7.165a.75.75,0,0,1,.22.53V20.152c0,2.124,0,3.19-.472,4.117a4.305,4.305,0,0,1-1.893,1.893c-.927.472-1.993.472-4.117.472H9.732c-2.124,0-3.19,0-4.117-.472a4.306,4.306,0,0,1-1.893-1.893c-.472-.927-.472-1.993-.472-4.117V7.732c0-2.124,0-3.19.472-4.117A4.306,4.306,0,0,1,5.616,1.722C6.542,1.25,7.608,1.25,9.732,1.25Zm5.9,1.5h-5.9c-1.884,0-2.83,0-3.436.309A2.815,2.815,0,0,0,5.059,4.3C4.75,4.9,4.75,5.848,4.75,7.732v12.42c0,1.884,0,2.83.309,3.436A2.815,2.815,0,0,0,6.3,24.826c.606.309,1.552.309,3.436.309h7.643c1.884,0,2.83,0,3.436-.309a2.815,2.815,0,0,0,1.238-1.238c.309-.606.309-1.552.309-3.436V9.915h-4.5a3.369,3.369,0,0,1-1.6-.212,1.932,1.932,0,0,1-.85-.85,3.369,3.369,0,0,1-.212-1.6.75.75,0,0,1,.952-.722L20.68,7.8Zm1.661,5.66-.479-.134a.443.443,0,0,0,.121.09A1.161,1.161,0,0,0,17.292,8.41Z" transform="translate(-3.25 -1.25)" fill="#1f2126"/></svg>