<svg xmlns="http://www.w3.org/2000/svg" width="20.607" height="25.384" viewBox="0 0 20.607 25.384">
  <path id="excel" d="M15.942,2.322V7.255a2.967,2.967,0,0,0,.13,1.259,1.194,1.194,0,0,0,.522.522,2.967,2.967,0,0,0,1.259.13h4.933M10.568,13.942l5.971,5.971m0-5.971-5.971,5.971M15.942,2H9.732c-2.006,0-3.01,0-3.776.39A3.583,3.583,0,0,0,4.39,3.956C4,4.723,4,5.726,4,7.732v12.42c0,2.007,0,3.01.39,3.776a3.582,3.582,0,0,0,1.566,1.566c.766.391,1.77.391,3.776.391h7.643c2.007,0,3.01,0,3.776-.391a3.582,3.582,0,0,0,1.566-1.566c.391-.766.391-1.77.391-3.776V9.165Z" transform="translate(-3.25 -1.25)" fill="none" stroke="#1f2126" stroke-linecap="round" stroke-linejoin="round" stroke-width="1.5"/>
</svg>
