<svg xmlns="http://www.w3.org/2000/svg" width="12" height="17.75" viewBox="0 0 12 17.75">
  <g id="Group_11664" data-name="Group 11664" transform="translate(1 1)">
    <path id="arrow-selector-v" d="M17,21a1,1,0,0,1-.707-.293L12,16.414,7.707,20.707a1,1,0,0,1-1.414-1.414l5-5a1,1,0,0,1,1.414,0l5,5A1,1,0,0,1,17,21Z" transform="translate(-7 -15)"/>
    <path id="arrow-selector-v-2" data-name="arrow-selector-v" d="M10,5.75a.748.748,0,0,1-.53-.22L5,1.061.53,5.53a.75.75,0,0,1-1.061,0,.75.75,0,0,1,0-1.061l5-5a.75.75,0,0,1,1.061,0l5,5A.75.75,0,0,1,10,5.75Z" transform="translate(10 16) rotate(180)" opacity="0.2"/>
  </g>
</svg>
