<svg xmlns="http://www.w3.org/2000/svg" width="11.5" height="17.5" viewBox="0 0 11.5 17.5">
  <g id="Group_11662" data-name="Group 11662" transform="translate(-775.75 -1435.75)" opacity="0.4">
    <path id="arrow-selector-v" d="M12,20.75a.748.748,0,0,1-.53-.22l-5-5A.75.75,0,0,1,7.53,14.47L12,18.939l4.47-4.47A.75.75,0,0,1,17.53,15.53l-5,5A.748.748,0,0,1,12,20.75Z" transform="translate(769.5 1432.5)"/>
    <path id="arrow-selector-v-2" data-name="arrow-selector-v" d="M12,20.75a.748.748,0,0,1-.53-.22l-5-5A.75.75,0,0,1,7.53,14.47L12,18.939l4.47-4.47A.75.75,0,0,1,17.53,15.53l-5,5A.748.748,0,0,1,12,20.75Z" transform="translate(793.5 1456.5) rotate(180)"/>
  </g>
</svg>
