<svg xmlns="http://www.w3.org/2000/svg" width="19.48" height="19.5" viewBox="0 0 19.48 19.5"><g transform="translate(0.75 0.75)"><path d="M6.73,7.47a.748.748,0,0,1-.53-.22L2.48,3.53A.75.75,0,0,1,3.54,2.47l3.19,3.19L9.92,2.47A.75.75,0,1,1,10.98,3.53L7.26,7.25A.748.748,0,0,1,6.73,7.47Z" transform="translate(7.53 11.28)" fill="#292d32" opacity="0.202"/><path d="M6.73,21.75A.75.75,0,0,1,5.98,21V3a.75.75,0,0,1,1.5,0V21A.75.75,0,0,1,6.73,21.75Z" transform="translate(7.53 -3)" fill="#292d32" opacity="0.202"/><path d="M13.55,21.75a.75.75,0,0,1-.53-1.28l3.72-3.72a.75.75,0,0,1,1.061,0l3.72,3.72A.75.75,0,1,1,20.46,21.53l-3.19-3.19-3.19,3.19A.748.748,0,0,1,13.55,21.75Z" transform="translate(-13.55 -17.28)" fill="#292d32"/><path d="M17.27,21.75a.75.75,0,0,1-.75-.75V3a.75.75,0,0,1,1.5,0V21A.75.75,0,0,1,17.27,21.75Z" transform="translate(-13.55 -3)" fill="#292d32"/></g></svg>