<svg xmlns="http://www.w3.org/2000/svg" width="19.48" height="19.5" viewBox="0 0 19.48 19.5"><g transform="translate(-2.26 -2.25)"><path d="M10.45,7.47a.748.748,0,0,1-.53-.22L6.73,4.061,3.54,7.25A.75.75,0,0,1,2.48,6.19L6.2,2.47a.75.75,0,0,1,1.061,0l3.72,3.72a.75.75,0,0,1-.53,1.28Z" fill="#292d32"/><path d="M6.73,21.75A.75.75,0,0,1,5.98,21V3a.75.75,0,0,1,1.5,0V21A.75.75,0,0,1,6.73,21.75Z" fill="#292d32"/><path d="M17.27,21.75a.748.748,0,0,1-.53-.22l-3.72-3.72A.75.75,0,0,1,14.08,16.75l3.19,3.19,3.19-3.19A.75.75,0,0,1,21.52,17.81L17.8,21.53A.748.748,0,0,1,17.27,21.75Z" fill="#292d32"/><path d="M17.27,21.75a.75.75,0,0,1-.75-.75V3a.75.75,0,0,1,1.5,0V21A.75.75,0,0,1,17.27,21.75Z" fill="#292d32"/></g></svg>