<svg xmlns="http://www.w3.org/2000/svg" width="23.1" height="23.1" viewBox="0 0 23.1 23.1"><path d="M18.84,25.35H8.76c-2.133,0-3.2,0-4.135-.474a4.323,4.323,0,0,1-1.9-1.9c-.474-.931-.474-2-.474-4.135V8.76c0-2.133,0-3.2.474-4.135a4.323,4.323,0,0,1,1.9-1.9c.931-.474,2-.474,4.135-.474H18.84c2.133,0,3.2,0,4.135.474a4.323,4.323,0,0,1,1.9,1.9c.474.93.474,2,.474,4.135V18.84c0,2.133,0,3.2-.474,4.135a4.322,4.322,0,0,1-1.9,1.9C22.044,25.35,20.973,25.35,18.84,25.35ZM8.76,3.75c-1.894,0-2.844,0-3.454.311A2.832,2.832,0,0,0,4.061,5.306c-.311.61-.311,1.56-.311,3.454V18.84c0,1.894,0,2.844.311,3.454a2.832,2.832,0,0,0,1.245,1.245c.61.311,1.56.311,3.454.311H18.84c1.894,0,2.844,0,3.454-.311a2.832,2.832,0,0,0,1.245-1.245c.311-.61.311-1.56.311-3.454V8.76c0-1.894,0-2.844-.311-3.454a2.832,2.832,0,0,0-1.245-1.246c-.61-.311-1.56-.311-3.454-.311Z" transform="translate(-2.25 -2.25)" fill="#1f2126"/></svg>