<svg xmlns="http://www.w3.org/2000/svg" width="23.1" height="23.1" viewBox="0 0 23.1 23.1">
  <path id="freeze" d="M7.2,20.4V7.2M8.76,3H18.84c2.016,0,3.024,0,3.794.392a3.6,3.6,0,0,1,1.573,1.573c.392.77.392,1.778.392,3.794V18.84c0,2.016,0,3.024-.392,3.794a3.6,3.6,0,0,1-1.573,1.573c-.77.392-1.778.392-3.794.392H8.76c-2.016,0-3.024,0-3.794-.392a3.6,3.6,0,0,1-1.573-1.573C3,21.864,3,20.856,3,18.84V8.76c0-2.016,0-3.024.392-3.794A3.6,3.6,0,0,1,4.966,3.392C5.736,3,6.744,3,8.76,3Z" transform="translate(-2.25 -2.25)" fill="none" stroke="#1f2126" stroke-linecap="round" stroke-linejoin="round" stroke-width="1.5"/>
</svg>
