<svg xmlns="http://www.w3.org/2000/svg" width="20.607" height="25.384" viewBox="0 0 20.607 25.384">
  <g id="pdf" transform="translate(-447.172 -400.25)">
    <path id="Path_11274" data-name="Path 11274" d="M15.942,2.322V7.255a2.967,2.967,0,0,0,.13,1.259,1.194,1.194,0,0,0,.522.522,2.967,2.967,0,0,0,1.259.13h4.933M15.942,2H9.732c-2.006,0-3.01,0-3.776.39A3.583,3.583,0,0,0,4.39,3.956C4,4.723,4,5.726,4,7.732v12.42c0,2.007,0,3.01.39,3.776a3.582,3.582,0,0,0,1.566,1.566c.766.391,1.77.391,3.776.391h7.643c2.007,0,3.01,0,3.776-.391a3.582,3.582,0,0,0,1.566-1.566c.391-.766.391-1.77.391-3.776V9.165Z" transform="translate(443.922 399)" fill="none" stroke="#1f2126" stroke-linecap="round" stroke-linejoin="round" stroke-width="1.5"/>
    <path id="Path_11275" data-name="Path 11275" d="M.474.6V-5.455H2.863a2.441,2.441,0,0,1,1.174.262,1.8,1.8,0,0,1,.741.724A2.167,2.167,0,0,1,5.033-3.4a2.129,2.129,0,0,1-.26,1.064,1.8,1.8,0,0,1-.752.718,2.542,2.542,0,0,1-1.19.257H1.308V-2.389H2.623a1.289,1.289,0,0,0,.61-.129.843.843,0,0,0,.361-.358,1.123,1.123,0,0,0,.12-.528,1.112,1.112,0,0,0-.12-.528.828.828,0,0,0-.362-.352,1.331,1.331,0,0,0-.615-.126H1.754V.6ZM7.488.6H5.342V-5.455H7.506a3.22,3.22,0,0,1,1.573.362,2.471,2.471,0,0,1,1.016,1.039,3.437,3.437,0,0,1,.356,1.62,3.462,3.462,0,0,1-.356,1.626A2.469,2.469,0,0,1,9.075.237,3.255,3.255,0,0,1,7.488.6ZM6.622-.5h.813a2.052,2.052,0,0,0,.956-.2,1.3,1.3,0,0,0,.585-.63,2.657,2.657,0,0,0,.2-1.1,2.629,2.629,0,0,0-.2-1.1,1.29,1.29,0,0,0-.584-.627,2.056,2.056,0,0,0-.955-.2H6.622ZM10.872.6V-5.455h4.009V-4.4H12.152v1.443h2.463V-1.9H12.152V.6Z" transform="translate(450.195 419.27)" fill="#1f2126"/>
  </g>
</svg>
