<svg xmlns="http://www.w3.org/2000/svg" width="20.607" height="25.384" viewBox="0 0 20.607 25.384"><g transform="translate(-447.172 -400.25)"><path d="M9.732,1.25h6.21a.75.75,0,0,1,.53.22l7.165,7.165a.75.75,0,0,1,.22.53V20.152c0,2.124,0,3.19-.472,4.117a4.305,4.305,0,0,1-1.893,1.893c-.927.472-1.993.472-4.117.472H9.732c-2.124,0-3.19,0-4.117-.472a4.306,4.306,0,0,1-1.893-1.893c-.472-.927-.472-1.993-.472-4.117V7.732c0-2.124,0-3.19.472-4.117A4.306,4.306,0,0,1,5.616,1.722C6.542,1.25,7.608,1.25,9.732,1.25Zm5.9,1.5h-5.9c-1.884,0-2.83,0-3.436.309A2.815,2.815,0,0,0,5.059,4.3C4.75,4.9,4.75,5.848,4.75,7.732v12.42c0,1.884,0,2.83.309,3.436A2.815,2.815,0,0,0,6.3,24.826c.606.309,1.552.309,3.436.309h7.643c1.884,0,2.83,0,3.436-.309a2.815,2.815,0,0,0,1.238-1.238c.309-.606.309-1.552.309-3.436V9.915h-4.5a3.369,3.369,0,0,1-1.6-.212,1.932,1.932,0,0,1-.85-.85,3.369,3.369,0,0,1-.212-1.6.75.75,0,0,1,.952-.722L20.68,7.8Zm1.661,5.66-.479-.134a.443.443,0,0,0,.121.09A1.161,1.161,0,0,0,17.292,8.41Z" transform="translate(443.922 399)" fill="#1f2126"/><path d="M.474.6V-5.455H2.863a2.441,2.441,0,0,1,1.174.262,1.8,1.8,0,0,1,.741.724A2.167,2.167,0,0,1,5.033-3.4a2.129,2.129,0,0,1-.26,1.064,1.8,1.8,0,0,1-.752.718,2.542,2.542,0,0,1-1.19.257H1.308V-2.389H2.623a1.289,1.289,0,0,0,.61-.129.843.843,0,0,0,.361-.358,1.123,1.123,0,0,0,.12-.528,1.112,1.112,0,0,0-.12-.528.828.828,0,0,0-.362-.352,1.331,1.331,0,0,0-.615-.126H1.754V.6ZM7.488.6H5.342V-5.455H7.506a3.22,3.22,0,0,1,1.573.362,2.471,2.471,0,0,1,1.016,1.039,3.437,3.437,0,0,1,.356,1.62,3.462,3.462,0,0,1-.356,1.626A2.469,2.469,0,0,1,9.075.237,3.255,3.255,0,0,1,7.488.6ZM6.622-.5h.813a2.052,2.052,0,0,0,.956-.2,1.3,1.3,0,0,0,.585-.63,2.657,2.657,0,0,0,.2-1.1,2.629,2.629,0,0,0-.2-1.1,1.29,1.29,0,0,0-.584-.627,2.056,2.056,0,0,0-.955-.2H6.622ZM10.872.6V-5.455h4.009V-4.4H12.152v1.443h2.463V-1.9H12.152V.6Z" transform="translate(450.195 419.27)" fill="#1f2126"/></g></svg>