<svg xmlns="http://www.w3.org/2000/svg" width="25.384" height="25.384" viewBox="0 0 25.384 25.384">
  <path id="print" d="M21.107,7.971V5.821a5.933,5.933,0,0,0-.26-2.517A2.388,2.388,0,0,0,19.8,2.26,5.934,5.934,0,0,0,17.286,2H10.6a5.934,5.934,0,0,0-2.517.26A2.388,2.388,0,0,0,7.037,3.3a5.934,5.934,0,0,0-.26,2.517v2.15m0,13.136a8.98,8.98,0,0,1-2.121-.122,3.583,3.583,0,0,1-2.533-2.533A8.979,8.979,0,0,1,2,16.331V13.7c0-2.007,0-3.01.39-3.776A3.583,3.583,0,0,1,3.956,8.362c.766-.39,1.77-.39,3.776-.39h12.42c2.007,0,3.01,0,3.776.39a3.582,3.582,0,0,1,1.566,1.566c.391.766.391,1.77.391,3.776v2.627a8.98,8.98,0,0,1-.122,2.122,3.583,3.583,0,0,1-2.533,2.533,8.98,8.98,0,0,1-2.122.122m-3.583-8.957h3.583M10.6,25.884h6.688a5.933,5.933,0,0,0,2.517-.26,2.388,2.388,0,0,0,1.044-1.044,5.933,5.933,0,0,0,.26-2.517V20.152a5.933,5.933,0,0,0-.26-2.517A2.388,2.388,0,0,0,19.8,16.591a5.933,5.933,0,0,0-2.517-.26H10.6a5.933,5.933,0,0,0-2.517.26,2.388,2.388,0,0,0-1.044,1.044,5.934,5.934,0,0,0-.26,2.517v1.911a5.934,5.934,0,0,0,.26,2.517,2.388,2.388,0,0,0,1.044,1.044A5.933,5.933,0,0,0,10.6,25.884Z" transform="translate(-1.25 -1.25)" fill="none" stroke="#1f2126" stroke-linecap="round" stroke-linejoin="round" stroke-width="1.5"/>
</svg>
