<svg xmlns="http://www.w3.org/2000/svg" width="25.384" height="25.384" viewBox="0 0 25.384 25.384"><path d="M10.6,1.25h6.688a6.336,6.336,0,0,1,2.858.342,3.119,3.119,0,0,1,1.372,1.372,6.336,6.336,0,0,1,.342,2.858.75.75,0,0,1-.639.742l-4.386.658h3.319c2.124,0,3.19,0,4.117.472a4.306,4.306,0,0,1,1.893,1.893c.472.927.472,1.993.472,4.117v2.627a9.258,9.258,0,0,1-.148,2.316,4.345,4.345,0,0,1-3.064,3.064,6.168,6.168,0,0,1-1.566.146v.207a6.335,6.335,0,0,1-.342,2.858,3.118,3.118,0,0,1-1.372,1.372,6.336,6.336,0,0,1-2.858.342H10.6a6.335,6.335,0,0,1-2.858-.342,3.119,3.119,0,0,1-1.372-1.371,6.336,6.336,0,0,1-.342-2.858v-.234a6.3,6.3,0,0,1-1.566-.119A4.345,4.345,0,0,1,1.4,18.646a9.257,9.257,0,0,1-.148-2.316V13.7c0-2.124,0-3.19.472-4.117A4.306,4.306,0,0,1,3.616,7.693a5.446,5.446,0,0,1,2.411-.458V5.821a6.336,6.336,0,0,1,.342-2.858A3.119,3.119,0,0,1,7.74,1.592,6.336,6.336,0,0,1,10.6,1.25Zm9.758,3.926a3.908,3.908,0,0,0-.177-1.531,1.628,1.628,0,0,0-.716-.716,6.028,6.028,0,0,0-2.177-.179H10.6a6.027,6.027,0,0,0-2.177.179,1.628,1.628,0,0,0-.716.716,6.027,6.027,0,0,0-.179,2.177V7.1Zm1.5,15.18a5.046,5.046,0,0,0,1.177-.094,2.841,2.841,0,0,0,2-2,8.879,8.879,0,0,0,.1-1.927V13.7c0-1.884,0-2.83-.309-3.436A2.815,2.815,0,0,0,23.588,9.03c-.606-.309-1.552-.309-3.436-.309H7.732c-1.884,0-2.83,0-3.436.309a2.815,2.815,0,0,0-1.238,1.238c-.309.606-.309,1.552-.309,3.436v2.627a8.876,8.876,0,0,0,.1,1.927,2.841,2.841,0,0,0,2,2,6.086,6.086,0,0,0,1.177.067v-.176a6.336,6.336,0,0,1,.342-2.858,3.119,3.119,0,0,1,1.372-1.372,6.336,6.336,0,0,1,2.858-.342h6.688a6.336,6.336,0,0,1,2.858.342,3.118,3.118,0,0,1,1.372,1.372,6.335,6.335,0,0,1,.342,2.858Zm-1.5,0v-.205a6.027,6.027,0,0,0-.179-2.177,1.628,1.628,0,0,0-.716-.716,6.027,6.027,0,0,0-2.177-.179H10.6a6.027,6.027,0,0,0-2.177.179,1.628,1.628,0,0,0-.716.716,6.028,6.028,0,0,0-.179,2.177v.192C9.654,20.357,13.522,20.357,20.357,20.357Zm0,1.5c-7.025,0-10.733,0-12.831-.013v.219a6.028,6.028,0,0,0,.179,2.177,1.628,1.628,0,0,0,.716.716,6.027,6.027,0,0,0,2.177.179h6.688a6.027,6.027,0,0,0,2.177-.179,1.628,1.628,0,0,0,.716-.716,6.027,6.027,0,0,0,.179-2.177Z" transform="translate(-1.25 -1.25)" fill="#1f2126"/></svg>