<svg xmlns="http://www.w3.org/2000/svg" width="18.974" height="20.001" viewBox="0 0 18.974 20.001"><path d="M11.251,21.251A9.753,9.753,0,0,1,4.72,18.485a13.689,13.689,0,0,1-2.335-2.738.75.75,0,0,1,.684-1.138A46.393,46.393,0,0,1,13.19,16.028a7.735,7.735,0,0,1,2.327,1.061,1.9,1.9,0,0,1,.91,1.582c-.023.8-.672,1.5-1.827,1.978A9.025,9.025,0,0,1,11.251,21.251ZM4.6,16.212A12.828,12.828,0,0,0,5.759,17.4a8.161,8.161,0,0,0,5.492,2.349,7.675,7.675,0,0,0,2.74-.474c.693-.278.929-.573.937-.649C14.926,18.612,14.335,16.934,4.6,16.212ZM20.5,7.893H16.394a.75.75,0,0,1-.645-.367A36.757,36.757,0,0,1,9.592,6.444,8.439,8.439,0,0,1,7.119,5.37a1.911,1.911,0,0,1-.968-1.606c.044-1.633,2.66-2.514,5.1-2.514A11.48,11.48,0,0,1,18.67,4a12.2,12.2,0,0,1,2.466,2.748.746.746,0,0,1,.115.386v0q0,.013,0,.026a.747.747,0,0,1-.175.468h0a.75.75,0,0,1-.546.267H20.5ZM7.652,3.8c.038.1.886,1.774,11.248,2.49a11.706,11.706,0,0,0-1.231-1.18A9.86,9.86,0,0,0,11.251,2.75a7.8,7.8,0,0,0-2.636.431C7.888,3.456,7.676,3.732,7.652,3.8Z" transform="translate(-2.277 -1.25)" fill="#292d32"/></svg>